# xmcd
#
# Track frame offsets: 
#        150
#        9235
#        26203
#        43061
#        60477
#        78487
#        97433
#        112516
#        129050
#        146153
#        153394
#        170222
#        184826
#        202172
#        217396
#        233732
#        249770
#        266121
#        286764
#
# Disc length: 4043 seconds
#
# Revision: 0
# Processed by: cddbd v1.5.2PL0 Copyright (c) Steve Scherf et al.
# Submitted via: ExactAudioCopy v0.99pb4
#
DISCID=140fc913
DTITLE=Momentan - Finderlohn
DYEAR=2005
DGENRE=Hip-Hop
TTITLE0=Intro
TTITLE1=Give It To Me Featuring The Saint Of The Good People
TTITLE2=Auf Tour
TTITLE3=Die Stadtkinder Vom Landei Featuring Summersemann
TTITLE4=Going Back
TTITLE5=Dare Featuring Rakaa Iriscience Of Dilated Peoples (Adlib Remi
TTITLE5=x)
TTITLE6=Dare Featuring Rakaa Iriscience Of Dilated Peoples (Soul Force
TTITLE6=Remix)
TTITLE7=Trash-Talk
TTITLE8=Aus Den Augen In Den Sinn
TTITLE9=Interlude
TTITLE10=Raptallica
TTITLE11=Im Nachsten Leben
TTITLE12=Golden Era Featuring El Da Sensei
TTITLE13=Auf Tour (PH7 Remix)
TTITLE14=Einsichten
TTITLE15=You And Me
TTITLE16=Tausend Grunde
TTITLE17=Der Rote Fadeh
TTITLE18=Outro
EXTD=
EXTT0=
EXTT1=
EXTT2=
EXTT3=
EXTT4=
EXTT5=
EXTT6=
EXTT7=
EXTT8=
EXTT9=
EXTT10=
EXTT11=
EXTT12=
EXTT13=
EXTT14=
EXTT15=
EXTT16=
EXTT17=
EXTT18=
PLAYORDER=
